<?xml version="1.0" standalone="no"?>
<!DOCTYPE svg PUBLIC "-//W3C//DTD SVG 20010904//EN"
 "http://www.w3.org/TR/2001/REC-SVG-20010904/DTD/svg10.dtd">
<svg version="1.0" xmlns="http://www.w3.org/2000/svg"
 width="1185.000000pt" height="256.000000pt" viewBox="0 0 1185.000000 256.000000"
 preserveAspectRatio="xMidYMid meet">

<g transform="translate(0.000000,256.000000) scale(0.100000,-0.100000)"
fill="#000000" stroke="none">
<path d="M7780 2550 c0 -5 5 -10 11 -10 5 0 7 5 4 10 -3 6 -8 10 -11 10 -2 0
-4 -4 -4 -10z"/>
<path d="M796 2249 c-297 -153 -543 -279 -547 -279 -8 0 -2 -1054 7 -1155 l5
-60 228 -117 c175 -91 230 -115 239 -106 7 7 12 16 12 22 0 5 -7 1 -16 -10
-15 -18 -15 -17 -1 6 8 14 23 25 33 25 11 0 20 9 22 20 3 11 26 41 52 67 26
26 46 49 43 52 -3 3 4 4 15 1 12 -2 24 0 27 6 4 5 1 9 -5 9 -6 0 -8 5 -5 11 4
6 13 8 21 5 8 -3 13 0 11 7 -1 7 3 11 10 10 7 -2 10 3 7 10 -6 17 43 60 59 51
7 -4 9 -4 5 1 -10 10 11 37 23 29 5 -3 6 2 3 10 -5 14 34 49 52 45 20 -3 28 2
15 10 -17 11 -4 34 16 27 8 -3 11 -1 8 5 -10 15 14 39 39 39 15 0 17 3 8 9
-10 6 -4 13 22 25 20 9 36 19 36 22 0 3 -4 2 -10 -1 -5 -3 -10 -2 -10 4 0 13
35 32 44 24 3 -3 6 1 6 10 0 9 10 26 23 39 22 22 22 29 19 148 l-4 126 -261
139 c-144 76 -278 148 -299 160 l-38 22 30 0 c16 0 27 -4 24 -9 -3 -4 0 -8 5
-8 6 0 11 4 11 8 0 4 9 8 20 9 13 1 18 -2 13 -10 -5 -9 -3 -9 8 -1 17 12 83
18 75 6 -2 -4 4 -8 15 -8 10 0 19 4 19 8 0 4 12 8 26 8 16 0 23 -4 18 -11 -4
-8 -1 -8 13 -1 24 13 143 14 143 1 0 -6 7 -6 18 -1 23 12 210 13 191 1 -8 -5
-9 -9 -4 -9 6 0 17 4 25 10 9 5 19 5 27 -2 8 -7 13 -7 13 0 0 5 11 10 25 10
13 0 22 -4 19 -9 -3 -5 0 -9 5 -9 6 0 11 4 11 9 0 5 35 7 78 6 42 -1 77 -3 77
-4 0 -2 16 -4 35 -7 25 -3 31 -1 20 6 -12 8 -9 10 13 10 16 0 26 -4 22 -10 -9
-14 18 -13 33 2 8 8 15 8 27 -2 8 -7 15 -8 15 -3 0 6 36 10 83 11 l82 1 237
118 c209 104 259 133 230 133 -4 0 -248 126 -541 280 -294 154 -534 280 -535
279 -1 -1 -244 -127 -540 -280z"/>
<path d="M7743 2504 c-11 -31 -76 -138 -87 -147 -18 -12 -75 -24 -167 -37 -47
-6 -91 -15 -98 -20 -18 -10 23 -79 95 -160 61 -68 61 -68 44 -227 -5 -51 -7
-99 -4 -108 8 -20 33 -19 69 5 22 14 31 16 37 7 4 -7 8 -90 8 -186 l0 -174
-46 43 c-68 62 -142 93 -240 98 -142 8 -259 -40 -366 -148 -108 -111 -163
-247 -175 -436 -10 -169 29 -349 102 -463 152 -242 502 -302 699 -121 l46 43
0 -57 0 -56 140 0 140 0 0 735 c0 404 2 735 5 735 2 0 19 -9 37 -20 68 -41 82
-24 68 83 -6 39 -13 95 -16 124 l-7 51 69 80 c77 88 99 124 91 144 -3 10 -45
20 -123 32 -66 10 -128 23 -139 31 -12 7 -36 43 -55 79 -18 37 -38 70 -43 73
-12 7 -10 2 38 -104 36 -78 40 -83 74 -88 20 -3 60 -10 90 -15 30 -6 69 -10
88 -10 18 0 33 -5 33 -11 0 -6 -36 -48 -80 -93 -90 -93 -89 -88 -68 -234 6
-45 9 -85 6 -88 -3 -3 -55 19 -114 49 l-109 55 -104 -55 c-57 -29 -106 -51
-109 -48 -3 2 1 56 8 119 l13 114 -81 88 c-44 49 -78 92 -76 96 3 4 20 8 39 8
18 0 55 4 82 10 26 5 64 12 84 15 35 5 38 9 79 100 24 53 40 98 37 102 -4 3
-10 -3 -14 -13z m-269 -1186 c64 -19 131 -91 151 -161 25 -88 18 -354 -11
-417 -45 -97 -121 -143 -234 -143 -122 0 -194 51 -241 170 -20 50 -23 77 -23
193 -1 151 12 207 65 280 57 78 181 111 293 78z"/>
<path d="M7762 2330 c-13 -27 -22 -55 -19 -62 3 -9 7 -6 12 7 16 40 26 47 46
29 11 -10 19 -22 19 -28 0 -16 40 -49 75 -62 l30 -12 -30 -12 c-16 -6 -37 -17
-45 -24 -21 -19 -68 -28 -75 -16 -4 6 -12 9 -18 8 -20 -4 -87 33 -87 48 0 8
10 14 25 14 14 0 25 5 25 10 0 11 -81 12 -119 1 -23 -6 -22 -7 22 -48 25 -23
48 -46 51 -52 4 -5 -1 -37 -10 -70 -10 -34 -14 -64 -11 -67 4 -4 34 10 67 30
34 20 64 36 67 36 2 0 32 -16 64 -35 33 -19 63 -35 66 -35 5 0 2 27 -13 108
-6 29 -1 37 40 79 26 25 44 48 42 50 -2 3 -24 7 -48 9 -81 9 -82 10 -113 78
-17 36 -32 66 -35 66 -3 0 -16 -23 -28 -50z"/>
<path d="M3485 1975 c-223 -48 -408 -211 -494 -435 -102 -263 -74 -679 60
-908 47 -79 161 -191 234 -229 142 -74 354 -99 504 -60 170 46 306 155 380
308 44 93 90 254 75 268 -10 10 -303 75 -309 69 -3 -2 -11 -38 -20 -79 -43
-206 -161 -313 -327 -295 -153 16 -262 124 -314 313 -25 89 -31 332 -10 425
34 152 113 266 221 318 69 33 200 35 260 3 83 -44 156 -151 171 -251 3 -23 10
-44 14 -47 3 -2 72 6 151 18 l144 23 3 31 c4 44 -51 203 -94 270 -75 117 -204
211 -344 248 -84 23 -223 27 -305 10z"/>
<path d="M4754 1581 c-154 -44 -261 -138 -313 -277 l-20 -50 124 -51 124 -51
26 56 c50 108 97 136 230 136 134 0 194 -37 195 -121 0 -71 -36 -92 -269 -153
-208 -54 -294 -91 -357 -155 -63 -62 -84 -120 -84 -226 0 -112 27 -178 99
-250 67 -65 133 -94 252 -110 144 -20 282 17 367 98 l42 40 0 -54 0 -53 125 0
125 0 0 423 c0 459 -4 502 -57 599 -53 97 -161 174 -285 203 -86 20 -247 18
-324 -4z m371 -868 c-3 -13 -19 -38 -36 -57 -41 -48 -112 -70 -219 -70 -130 0
-174 31 -172 124 1 62 44 101 144 130 140 41 223 70 253 88 l30 19 3 -106 c2
-58 0 -116 -3 -128z"/>
<path d="M5970 1583 c-123 -34 -222 -111 -267 -210 -53 -115 -38 -240 38 -327
70 -79 153 -118 407 -192 173 -50 224 -74 241 -111 15 -32 14 -48 -4 -83 -26
-50 -85 -73 -200 -78 -95 -4 -103 -2 -155 25 -62 33 -102 84 -120 153 -7 25
-14 50 -15 57 -3 10 -138 -19 -249 -53 -26 -9 -15 -70 30 -162 88 -181 257
-275 494 -275 170 -1 283 38 379 127 77 73 104 131 109 237 6 116 -14 176 -80
242 -63 62 -149 102 -352 161 -240 70 -286 95 -286 152 0 32 45 81 88 95 50
17 169 15 212 -3 53 -23 96 -63 121 -116 12 -26 23 -48 25 -50 5 -8 244 73
244 82 0 23 -63 143 -97 184 -45 54 -120 105 -198 133 -85 30 -274 36 -365 12z"/>
<path d="M8598 1585 c-94 -24 -177 -72 -248 -144 -75 -76 -119 -153 -152 -266
-32 -114 -32 -315 1 -430 57 -201 178 -335 354 -390 104 -33 186 -39 287 -21
216 38 362 172 432 396 20 65 23 96 23 230 0 164 -15 241 -67 345 -58 115
-172 217 -297 263 -83 31 -245 39 -333 17z m236 -269 c126 -53 195 -227 169
-431 -20 -161 -91 -259 -209 -285 -139 -32 -261 46 -306 193 -29 95 -23 297
10 371 34 75 66 111 124 140 60 30 156 35 212 12z"/>
<path d="M9883 1585 c-190 -52 -324 -182 -390 -379 -25 -75 -27 -93 -27 -246
0 -153 2 -171 27 -246 82 -246 273 -386 527 -387 273 -2 473 156 547 433 24
90 24 310 0 400 -58 217 -206 373 -404 424 -74 19 -210 20 -280 1z m254 -280
c56 -28 93 -70 126 -143 32 -72 37 -275 9 -369 -45 -148 -163 -223 -305 -193
-115 24 -186 117 -209 277 -21 147 11 295 81 375 71 81 196 103 298 53z"/>
<path d="M11254 1569 c-34 -13 -68 -37 -97 -68 l-46 -49 -3 56 -3 57 -140 0
-140 0 -3 -602 -2 -603 149 0 150 0 3 383 c3 373 4 383 26 432 42 91 83 118
176 117 34 -1 70 -3 80 -4 17 -3 21 9 37 107 10 61 20 124 24 142 5 30 4 32
-32 42 -57 16 -122 12 -179 -10z"/>
<path d="M1758 1332 l-148 -137 0 -584 0 -584 23 19 c38 33 485 461 640 613
l147 146 -1 65 c0 70 -9 103 -24 98 -6 -2 -14 7 -20 20 -5 12 -17 25 -26 27
-9 3 -19 15 -22 25 -4 15 -10 18 -24 13 -10 -3 -15 -3 -11 2 4 4 -15 28 -42
52 -28 25 -47 50 -43 57 3 6 3 8 -2 4 -4 -4 -18 4 -31 17 -13 14 -28 25 -34
25 -5 0 -10 9 -10 19 0 11 -5 23 -12 27 -7 5 -8 3 -3 -6 5 -9 4 -11 -3 -6 -7
4 -12 13 -12 21 0 8 -5 17 -12 21 -7 5 -9 2 -4 -7 4 -8 1 -6 -7 3 -8 10 -17
15 -21 11 -4 -4 -4 1 0 10 3 10 3 17 -2 16 -21 -4 -34 2 -34 15 0 8 -7 16 -15
20 -8 3 -15 13 -15 21 0 9 -4 14 -9 11 -5 -3 -15 2 -22 11 -12 14 -12 16 0 8
10 -6 12 -4 7 4 -5 7 -14 10 -20 8 -12 -5 -42 31 -38 46 1 4 1 7 0 7 -2 0 -69
-62 -150 -138z"/>
<path d="M2220 1146 c0 -2 8 -10 18 -17 15 -13 16 -12 3 4 -13 16 -21 21 -21
13z"/>
<path d="M965 780 c4 -6 11 -8 16 -5 14 9 11 15 -7 15 -8 0 -12 -5 -9 -10z"/>
</g>
</svg>
