<?xml version="1.0" standalone="no"?>
<!DOCTYPE svg PUBLIC "-//W3C//DTD SVG 20010904//EN"
 "http://www.w3.org/TR/2001/REC-SVG-20010904/DTD/svg10.dtd">
<svg version="1.0" xmlns="http://www.w3.org/2000/svg"
 width="2148.000000pt" height="1126.000000pt" viewBox="0 0 2148.000000 1126.000000"
 preserveAspectRatio="xMidYMid meet">

<g transform="translate(0.000000,1126.000000) scale(0.100000,-0.100000)"
fill="#000000" stroke="none">
<path d="M7787 8483 c-4 -3 -7 -1288 -7 -2855 l0 -2848 435 0 435 0 0 915 0
915 143 0 142 0 735 -915 735 -915 549 0 c522 0 548 1 534 18 -43 49 -1839
2274 -1849 2290 -10 16 80 141 691 968 387 522 709 959 718 972 l14 22 -488 0
-489 -1 -585 -819 -585 -819 -132 -1 -133 0 0 1540 0 1540 -428 0 c-236 0
-432 -3 -435 -7z"/>
<path d="M11714 8477 c-2 -7 -3 -1102 -2 -2432 3 -2303 4 -2425 22 -2515 81
-421 331 -669 741 -735 71 -12 206 -15 648 -15 l557 0 0 390 0 390 -392 0
c-222 0 -421 5 -457 10 -128 21 -193 76 -229 191 -14 48 -16 182 -19 1282 l-4
1227 550 0 551 0 0 390 0 390 -550 0 -550 0 0 720 0 720 -430 0 c-344 0 -432
-3 -436 -13z"/>
<path d="M4795 7124 c-16 -2 -70 -9 -120 -15 -903 -109 -1630 -757 -1839
-1639 -47 -197 -60 -318 -60 -555 0 -237 13 -358 60 -555 193 -811 808 -1416
1634 -1605 168 -38 284 -49 505 -49 287 -1 464 26 711 105 775 248 1328 888
1463 1691 111 658 -47 1326 -427 1803 -346 435 -830 711 -1402 800 -99 15
-458 29 -525 19z m467 -854 c510 -107 882 -492 1000 -1033 19 -88 22 -132 22
-322 0 -190 -3 -234 -22 -322 -103 -473 -407 -835 -830 -987 -143 -51 -261
-70 -452 -70 -243 -1 -398 33 -595 132 -110 55 -157 86 -260 173 -318 270
-493 730 -455 1199 36 446 244 820 580 1047 151 102 374 181 580 207 83 10
338 -4 432 -24z"/>
<path d="M15766 7119 c-373 -39 -751 -197 -1056 -439 -107 -85 -286 -269 -369
-378 -186 -245 -326 -552 -395 -862 -42 -193 -51 -282 -51 -525 0 -243 9 -332
51 -525 74 -331 230 -658 437 -915 91 -113 296 -308 405 -385 489 -346 1049
-464 1625 -344 194 41 403 123 552 217 155 97 327 256 432 398 l58 78 22 -92
c62 -255 221 -430 464 -511 131 -44 241 -56 507 -56 l242 0 0 389 0 388 -133
5 c-160 5 -225 28 -276 98 -64 88 -61 13 -61 1784 l0 1606 -415 0 -415 0 -2
-311 -3 -311 -44 63 c-61 87 -181 210 -277 285 -339 265 -824 393 -1298 343z
m591 -844 c529 -103 917 -516 1013 -1080 27 -159 28 -399 1 -557 -86 -497
-397 -880 -843 -1036 -301 -106 -670 -92 -968 37 -109 48 -258 145 -352 231
-139 127 -279 347 -346 545 -106 313 -106 687 0 1000 66 197 206 417 345 545
191 175 447 294 708 329 97 14 344 6 442 -14z"/>
</g>
</svg>
